<svg width="20" height="20" fill="none" xmlns="http://www.w3.org/2000/svg"><g clip-path="url(#a)" fill="#20BCC6"><path d="M13.529 20.001H3.112A2.294 2.294 0 0 1 .82 17.71V6.46a2.293 2.293 0 0 1 2.292-2.291h.417a.625.625 0 0 1 0 1.25h-.417c-.574 0-1.042.467-1.042 1.042v11.25c0 .574.468 1.041 1.042 1.041h10.417c.574 0 1.041-.467 1.041-1.042v-.416a.625.625 0 0 1 1.25 0v.416a2.294 2.294 0 0 1-2.291 2.292Z"/><path d="M16.862 15h-8.75a2.294 2.294 0 0 1-2.292-2.292V2.292A2.294 2.294 0 0 1 8.112 0h8.75a2.294 2.294 0 0 1 2.292 2.292v10.416A2.294 2.294 0 0 1 16.862 15ZM8.112 1.25c-.574 0-1.042.468-1.042 1.042v10.416c0 .575.468 1.042 1.042 1.042h8.75c.574 0 1.042-.467 1.042-1.042V2.292c0-.574-.468-1.042-1.042-1.042h-8.75Z"/></g><defs><clipPath id="a"><path fill="#fff" d="M0 0h20v20H0z"/></clipPath></defs></svg>