<svg width="40" height="40" fill="none" xmlns="http://www.w3.org/2000/svg"><g clip-path="url(#a)"><path d="M35 0H5a5 5 0 0 0-5 5v30a5 5 0 0 0 5 5h30a5 5 0 0 0 5-5V5a5 5 0 0 0-5-5Z" fill="#7D3DAF"/><path d="m32.65 12.894-.007-.032c-.64-2.583-3.52-5.355-6.166-5.932l-.03-.006a34.26 34.26 0 0 0-12.895 0l-.03.006c-2.645.577-5.526 3.349-6.165 5.932l-.007.032a25.24 25.24 0 0 0 0 10.873l.007.031c.612 2.473 3.278 5.118 5.825 5.845v2.883c0 1.044 1.272 1.557 1.995.803l2.922-3.036c.633.035 1.267.055 1.901.055 2.154 0 4.309-.204 6.448-.612l.03-.006c2.645-.577 5.526-3.349 6.165-5.932l.008-.031c.79-3.608.79-7.266 0-10.873Zm-2.311 10.35c-.427 1.685-2.614 3.78-4.352 4.167a31.939 31.939 0 0 1-6.86.554.163.163 0 0 0-.12.05l-2.133 2.189-2.27 2.328a.266.266 0 0 1-.457-.183v-4.777a.164.164 0 0 0-.133-.16l-.002-.001c-1.738-.387-3.924-2.482-4.351-4.168a22.9 22.9 0 0 1 0-9.826c.427-1.685 2.613-3.78 4.351-4.168a31.907 31.907 0 0 1 11.975 0c1.739.387 3.925 2.482 4.352 4.168.711 3.26.711 6.566 0 9.827Z" fill="#fff"/><path d="M23.78 25.447c-.267-.081-.522-.136-.758-.234-2.45-1.016-4.705-2.328-6.492-4.338-1.016-1.143-1.81-2.434-2.483-3.8-.318-.648-.587-1.321-.86-1.99-.25-.61.117-1.24.505-1.699a3.99 3.99 0 0 1 1.337-1.004c.395-.19.784-.08 1.073.254.624.724 1.197 1.485 1.661 2.325.285.516.207 1.147-.31 1.498-.126.086-.24.186-.357.282-.103.085-.2.17-.27.285a.779.779 0 0 0-.052.684c.638 1.752 1.713 3.115 3.477 3.85.282.117.566.254.89.216.545-.064.722-.661 1.103-.974.373-.305.85-.308 1.252-.054s.791.527 1.178.803c.38.271.76.536 1.11.845.337.297.453.686.263 1.09-.347.737-.853 1.351-1.583 1.743-.206.11-.452.146-.684.218.232-.072-.267-.081 0 0ZM20.007 11.54c3.205.09 5.837 2.216 6.401 5.385.096.54.13 1.091.173 1.64.018.23-.112.449-.361.452-.257.003-.373-.212-.39-.442-.032-.456-.055-.915-.118-1.367-.332-2.387-2.236-4.362-4.612-4.786-.358-.064-.724-.08-1.086-.119-.229-.024-.529-.038-.58-.322-.042-.24.16-.43.387-.441.061-.004.124 0 .186 0-.062 0 3.205.09 0 0Z" fill="#fff"/><path d="M24.877 17.852c-.006.04-.008.134-.032.223-.085.322-.573.362-.685.037a.968.968 0 0 1-.039-.31c0-.678-.148-1.357-.49-1.947a3.625 3.625 0 0 0-1.52-1.426 4.372 4.372 0 0 0-1.212-.372c-.183-.03-.367-.049-.55-.074-.223-.031-.342-.173-.332-.392a.345.345 0 0 1 .384-.34c.736.041 1.446.2 2.1.546 1.33.705 2.09 1.816 2.311 3.3.01.067.026.134.031.202.013.166.02.333.034.553-.013-.22-.006.04 0 0Z" fill="#fff"/><path d="M22.884 17.776c-.268.004-.412-.144-.44-.39-.019-.171-.034-.345-.075-.512a1.44 1.44 0 0 0-.531-.834 1.388 1.388 0 0 0-.433-.209c-.197-.057-.401-.04-.598-.089-.213-.052-.33-.225-.297-.425a.385.385 0 0 1 .406-.31c1.243.09 2.131.733 2.258 2.196.009.103.02.212-.004.31-.039.17-.164.254-.286.263.122-.009-.268.004 0 0Z" fill="#fff"/></g><defs><clipPath id="a"><path fill="#fff" d="M0 0h40v40H0z"/></clipPath></defs></svg>