<svg width="280" height="65" fill="none" xmlns="http://www.w3.org/2000/svg"><path d="m254.688 53.347-224.824 8.77C15.87 62.663 4.341 52.358 4.08 39.071 3.817 25.783 14.923 14.595 28.917 14.05l224.824-8.77c13.994-.547 25.524 9.758 25.785 23.046.261 13.215-10.844 24.475-24.838 25.02Z" fill="#fff"/><path d="M80.184 29.22c-.225.315-.45.63-.68.716-.229.162-.536.25-.922.265a3.092 3.092 0 0 1-1.162-.186c-.389-.138-.856-.35-1.322-.486-.468-.212-1.011-.345-1.554-.477a7.978 7.978 0 0 0-2.011-.154c-1.08.041-1.847.3-2.457.707a2.07 2.07 0 0 0-.815 1.717c.011.536.173.913.567 1.281.392.292.86.58 1.484.864.622.206 1.323.486 2.099.686.776.2 1.552.4 2.407.675.855.274 1.633.55 2.412.904.78.354 1.483.787 2.113 1.376.628.513 1.105 1.184 1.507 2.012.401.751.576 1.741.599 2.89.028 1.378-.18 2.612-.695 3.858-.517 1.17-1.19 2.192-2.177 3.072-.986.88-2.208 1.54-3.663 2.132-1.457.516-3.15.81-5.08.883-.925.036-1.93-.003-2.859-.12a18.183 18.183 0 0 1-2.791-.584c-.932-.271-1.712-.625-2.49-.978a7.093 7.093 0 0 1-1.958-1.305l1.868-3.137c.224-.392.45-.63.831-.875.304-.241.766-.336 1.306-.356.463-.018.927.041 1.318.256.39.215.78.43 1.248.642a16.51 16.51 0 0 0 1.635.628c.621.206 1.395.254 2.243.221.618-.023 1.156-.12 1.616-.291.46-.171.765-.336 1.07-.577.303-.242.453-.477.601-.79.148-.312.142-.618.136-.925-.01-.536-.174-.99-.568-1.358a3.894 3.894 0 0 0-1.484-.863c-.622-.206-1.323-.486-2.097-.61-.777-.2-1.553-.4-2.408-.675-.778-.276-1.632-.55-2.412-.904-.779-.353-1.484-.863-2.114-1.452-.63-.59-1.108-1.338-1.512-2.242-.404-.904-.58-1.97-.605-3.196a8.59 8.59 0 0 1 .627-3.396c.441-1.09 1.117-2.035 2.026-2.913.909-.878 2.054-1.534 3.433-2.047 1.38-.512 2.996-.804 4.848-.874 1.003-.038 2.007 0 2.938.195.929.118 1.86.389 2.639.666.855.274 1.557.63 2.26 1.063.704.433 1.33.87 1.804 1.388l-1.8 2.674Zm1.511-5.299 6.676-.253c.614-.023 1.078.111 1.466.325.39.289.703.581.864.955l3.013 12.28c.248.903.497 1.806.669 2.712.172.906.342 1.736.514 2.642.213-.844.502-1.768.713-2.688.212-.92.5-1.844.79-2.768l3.203-12.516c.146-.386.368-.774.748-1.017.377-.318.836-.412 1.373-.432l3.684-.14c.614-.023 1.077.111 1.466.325.389.289.703.581.864.955l3.549 12.26c.249.903.574 1.803.823 2.706s.496 1.73.744 2.634c.135-.918.272-1.76.484-2.68l.635-2.762 2.667-12.496c.146-.385.368-.774.747-1.017.378-.318.837-.411 1.374-.432l6.37-.242-8.116 27.911-6.753.257c-.384.014-.693-.05-.927-.27-.235-.219-.472-.514-.636-1.04l-4.268-13.601c-.242-.6-.408-1.201-.574-1.803-.165-.602-.331-1.204-.42-1.81-.141.614-.206 1.225-.347 1.839-.141.613-.283 1.227-.5 1.844l-3.715 13.828c-.289.923-.817 1.4-1.738 1.435l-6.216.236-9.226-27.177Zm56.049-2.731a15.28 15.28 0 0 1 5.1.647 10.116 10.116 0 0 1 3.978 2.297 11.676 11.676 0 0 1 2.698 3.877c.649 1.582.992 3.329 1.032 5.317.013.611.023 1.147-.046 1.532s-.14.694-.289.93c-.15.235-.301.393-.607.481a2.93 2.93 0 0 1-.922.189l-16.02.61c.277 2.285 1.081 3.937 2.258 4.964 1.177 1.026 2.649 1.43 4.498 1.359 1.001-.038 1.77-.144 2.534-.48.689-.255 1.3-.508 1.833-.834.533-.327 1.068-.576 1.525-.823.458-.247.917-.418 1.456-.438.693-.027 1.16.185 1.554.63l2.525 2.887a11.727 11.727 0 0 1-2.725 2.476 16.478 16.478 0 0 1-3.052 1.57c-1.07.424-2.067.691-3.144.809a21.58 21.58 0 0 1-2.999.343c-1.926.074-3.78-.162-5.487-.709a12.056 12.056 0 0 1-4.524-2.659c-1.334-1.173-2.368-2.741-3.175-4.547-.807-1.806-1.158-3.935-1.209-6.458a15.36 15.36 0 0 1 .818-5.311 12.03 12.03 0 0 1 2.685-4.464c1.131-1.267 2.574-2.317 4.253-3.146a18.833 18.833 0 0 1 5.452-1.05Zm.269 5.728c-1.617.062-2.84.568-3.746 1.52-.906.953-1.419 2.274-1.693 3.967l10.398-.395a7.576 7.576 0 0 0-.27-1.903c-.166-.606-.485-1.13-.881-1.65a4.806 4.806 0 0 0-1.565-1.165c-.545-.285-1.318-.409-2.243-.374Zm28.818-6.541a15.28 15.28 0 0 1 5.1.648 10.112 10.112 0 0 1 3.977 2.297c1.1 1.029 1.975 2.373 2.699 3.876.648 1.582.992 3.328 1.032 5.316.012.612.023 1.147-.047 1.532-.069.386-.14.694-.289.93-.15.235-.301.394-.607.482a2.94 2.94 0 0 1-.921.188l-16.097.613c.278 2.285 1.082 3.937 2.258 4.964 1.177 1.026 2.65 1.429 4.498 1.359 1.001-.038 1.77-.144 2.534-.48.688-.255 1.3-.508 1.833-.834.533-.327 1.067-.577 1.525-.824.457-.247.916-.417 1.455-.438.694-.026 1.16.186 1.555.63l2.447 2.89a11.723 11.723 0 0 1-2.725 2.476 16.507 16.507 0 0 1-3.051 1.57c-1.071.424-2.067.691-3.144.809a21.597 21.597 0 0 1-2.999.343 16.752 16.752 0 0 1-5.564-.706 12.064 12.064 0 0 1-4.524-2.659c-1.333-1.173-2.367-2.74-3.174-4.546-.807-1.806-1.235-3.932-1.286-6.455a15.358 15.358 0 0 1 .818-5.31 12.03 12.03 0 0 1 2.685-4.464 14.798 14.798 0 0 1 4.253-3.146c1.762-.526 3.603-.979 5.759-1.06Zm.27 5.729c-1.618.061-2.841.567-3.747 1.52-.905.952-1.418 2.272-1.693 3.966l10.398-.396a7.576 7.576 0 0 0-.27-1.902c-.166-.606-.485-1.13-.881-1.65a4.804 4.804 0 0 0-1.565-1.165c-.545-.285-1.318-.409-2.242-.373Zm41.574 15.264a4.77 4.77 0 0 0-1.03-1.413c-.469-.365-.938-.729-1.558-.935-1.164-.414-2.625-.358-3.77.144-.611.252-1.065.652-1.519 1.051-.454.4-.751.946-.971 1.49a4.652 4.652 0 0 0-.348 1.848c.014.687.18 1.292.422 1.818.243.603.637 1.046 1.029 1.414.471.44.939.728 1.559.934.62.206 1.239.335 1.931.309a4.738 4.738 0 0 0 1.839-.452c.534-.25 1.066-.576 1.519-1.052.453-.4.75-.946.969-1.566.218-.62.36-1.237.348-1.848a4.475 4.475 0 0 0-.42-1.742Zm39.903 5.276-7.616.29-11.406-27.307 6.924-.264c.616-.023 1.08.112 1.469.326.391.291.705.585.867.96l4.097 12.302.983 2.943c.251.984.5 1.892.751 2.876.211-1.002.423-1.927.634-2.929.211-1.001.576-2.009.863-3.013l3.751-12.6c.146-.388.369-.778.826-1.025.378-.32.839-.414 1.377-.434l6.617-.252-10.137 28.127Zm-52.923-5.075c-.161-.301-.398-.446-.556-.593-.236-.145-.548-.21-.859-.199a1.497 1.497 0 0 0-.618.178l-.461.248c-.076.08-.231.085-.385.168s-.309.089-.542.098c-.388.014-.623-.054-.784-.355-.239-.298-.323-.603-.334-1.14l-.242-11.982 6.289-.239-.125-6.221-6.29.239-.141-6.99-6.832.26.001.076c-1.082.272-1.838 1.3-1.817 2.375l.47 23.272c.023 1.153.2 2.222.609 3.206.408.983.891 1.81 1.604 2.475.713.665 1.578 1.17 2.595 1.516 1.017.346 2.107.458 3.427.408 1.32-.05 2.714-.257 3.949-.688 1.312-.434 2.464-1.093 3.46-1.822l.382-.322-2.8-3.968Zm31.91-.882c-.161-.302-.397-.447-.556-.594-.236-.145-.548-.21-.859-.198a1.502 1.502 0 0 0-.618.177l-.461.248c-.076.08-.231.086-.385.168-.154.083-.309.089-.542.098-.388.014-.623-.053-.784-.355-.239-.298-.323-.602-.334-1.14l-.242-11.982 6.289-.239-.125-6.22-6.289.238-.142-6.99-6.832.26.001.076c-1.082.272-1.838 1.3-1.817 2.375l.47 23.273c.024 1.152.201 2.221.609 3.205s.891 1.81 1.604 2.476c.713.664 1.578 1.17 2.595 1.515 1.017.346 2.107.458 3.427.408 1.32-.05 2.714-.256 3.949-.688 1.312-.434 2.464-1.092 3.46-1.822l.382-.322-2.8-3.967Z" fill="#D8271C"/><path d="M26.55 12.793c-14.2.964-25.626 12.63-25.46 26.104.166 13.473 11.86 23.57 26.057 22.606 14.197-.964 25.623-12.631 25.458-26.104-.088-13.479-11.782-23.576-26.057-22.606Zm9.52 22.84L22.272 43.83c-1.157.672-2.096.069-2.113-1.338l-.32-13.315c-.016-1.406.905-2.21 2.077-1.696l14.05 6.01c1.17.513 1.26 1.47.104 2.142Z" fill="#2D3945"/><path opacity=".5" d="M28.84 12.22c-14.358.975-25.864 12.806-25.697 26.364.166 13.559 11.943 23.807 26.3 22.832 14.358-.975 24.778-12.732 24.611-26.29-.089-13.564-10.857-23.881-25.214-22.906Zm9.604 23.076-13.88 8.21c-1.157.672-2.097.068-2.192-1.334l-.32-13.4c-.017-1.407.905-2.212 2.076-1.698l14.212 6.079c1.171.514 1.26 1.471.104 2.143Z" fill="#2D3945"/><path d="M52.152 29.393c-.98-4.067-5.96-11.774-9.075-12.818-2.958-.98-4.532-2.867-5.697-3.01-1.088-.147-6.226-1.865-8.004-1.376-1.777.49-4.34.073-5.811.32-1.47.32-9.274 2.473-13.643 6.607-4.139 3.897-5.354 5.972-5.354 5.972s-7.643 15.28-1.733 16.65c1.555.338 1.333 1.239 1.43 2.782.028 2.286-.666 2.628 1.133 3.835 1.798 1.207 3.626-1.427 5.194-.057 1.49 1.375-1.414 4.82 2.797 6.748 4.21 1.856 3.521-3.707 6.477-2.948 3.033.754.448 4.915 3.86 4.905 3.412.064 2.119-4.203 4.137-4.044 2.018.158.894 3.334 5.068 2.313 4.175-1.02 1.344-4.224 3.583-5.04 2.316-.82 3.143 3.404 7.585-1.03 4.443-4.434.183-4.072 1.17-5.762.91-1.686 1.952 1.048 3.222-2.802 1.348-3.855.126-2.37-.05-4.13-.177-1.685 4.691-3.048 3.71-7.115Z" fill="#fff"/><path d="m44.13 43.173-3.158.382c-.308.037-.54-.119-.544-.365l-.007-.675c-.002-.246.227-.458.535-.495l3.157-.383c.308-.037.54.12.544.365l.007.676c-.075.193-.303.467-.535.495Zm.452-9.221c-.079.01-.157.022-.314-.026l-.709-.319c-.157-.047-.237-.176-.237-.247-.002-.14-.003-.28.075-.362l1.625-2.762c.154-.234.467-.419.703-.313l.709.32c.157.047.236.177.237.247.001.14.002.28-.075.362l-1.625 2.762c.002.21-.232.315-.39.338Z" fill="#D8271C"/><path d="M39.982 28.289c-.079.011-.157.023-.236-.036l-.71-.32c-.236-.107-.316-.377-.162-.68l1.625-2.767c.155-.233.468-.42.704-.313l.71.32c.157.048.236.177.237.247.001.141.002.282-.076.363L40.45 27.94c-.156.163-.312.326-.468.349Z" fill="#F6BF48"/><path d="M35.621 21.713c-.079.011-.157.023-.237-.037a.486.486 0 0 1-.317-.239l-1.125-2.684c-.08-.13-.081-.273-.003-.356a.717.717 0 0 1 .313-.33l.785-.399c.315-.117.63-.092.711.181l1.125 2.685c.082.273.005.569-.31.686l-.785.399c0 .07-.078.082-.157.094Z" fill="#D8271C"/><path d="m31.348 22.81-.154.149a.884.884 0 0 1-.385.114l-3.175-.296c-.154.02-.233-.099-.31-.153a.55.55 0 0 1-.08-.31l.224-.672c.075-.266.383-.434.615-.4l3.174.296c.155-.02.233.098.311.152.079.118.08.247.08.31l-.224.672c0 .064 0 .128-.076.138Z" fill="#20BEC6"/><path d="M23.503 17.787c-.232.03-.465-.069-.545-.316l-.162-.689c-.001-.128-.002-.257.074-.332a.49.49 0 0 1 .307-.233l3.085-.981c.154-.02.309-.04.387.014.155.044.233.163.234.227l.162.689c.08.247-.15.535-.38.63l-3.085.98-.077.01Z" fill="#F6BF48"/><path d="M33.458 48.719c-.079.011-.157.022-.236-.037l-.71-.32c-.235-.106-.316-.376-.162-.68l1.626-2.766c.155-.234.467-.42.703-.313l.71.32c.157.048.236.177.237.247.001.14.002.281-.075.363L33.925 48.3c-.154.303-.31.396-.467.419Z" fill="#20BEC6"/><path d="m10.185 29.168-2.801-.816c-.234-.102-.392-.346-.238-.566l.38-.715c.153-.286.463-.394.696-.293l2.802.816c.233.1.39.345.238.565l-.381.715c-.154.22-.462.395-.696.294Z" fill="#F6BF48"/><path d="M10.84 43.175c-.078-.056-.156-.112-.156-.179l-.394-.613c-.157-.178-.005-.533.226-.697l2.856-1.722c.155-.088.31-.11.387-.12a.914.914 0 0 1 .312.158l.394.613c.08.123.08.256.003.333-.076.144-.153.22-.23.298l-2.856 1.722c-.154.087-.31.109-.387.12-.077.076-.154.087-.154.087Z" fill="#20BEC6"/><path d="M13.891 23.934c-.078.011-.156.023-.314-.025l-.709-.32c-.236-.106-.317-.376-.162-.68l1.625-2.767c.155-.233.467-.419.704-.312l.709.32c.157.047.237.176.237.247.001.14.002.28-.075.362l-1.626 2.767c-.077.152-.155.234-.311.256 0 .14-.078.152-.078.152ZM12.308 36.43c-.154.157-.465.2-.623.018l-2.504-1.485c-.236-.17-.238-.442-.084-.667l.539-.618a.736.736 0 0 1 .388-.19c.155-.021.31-.043.39.082l2.504 1.484c.079.057.158.182.237.307 0 .136.002.271-.075.35l-.54.618c-.154.09-.154.09-.232.1Zm3.264 14.06c-.237.035-.476-.074-.556-.277l-.892-2.811c-.081-.275.075-.585.39-.703l.788-.33c.158-.023.316-.046.396.014.159.049.238.109.24.252l.89 2.811c.002.143.003.287-.075.37-.078.155-.157.238-.315.26l-.788.331c.08.06 0 .072-.079.083Z" fill="#D8271C"/><path d="M25.916 51.837c-.237.035-.475-.074-.555-.277l-.813-2.823c-.081-.275.075-.584.39-.702l.788-.33c.158-.023.316-.046.396.014.158.048.238.18.239.252l.892 2.81c0 .144.002.287-.077.37-.077.155-.156.238-.314.261l-.788.33c-.079.084-.079.084-.158.096Z" fill="#F6BF48"/><path d="m38.649 32.582-18.07-6.789c-1.486-.567-2.724.418-2.706 2.21l.314 16.468c.017 1.792 1.27 2.455 2.743 1.59l17.745-10.755c1.55-.946 1.46-2.156-.026-2.724Z" fill="#20BEC6"/><path d="M38.493 32.217 20.56 25.71c-1.476-.544-2.704.402-2.687 2.12l.022 2.131 17.933 6.368 2.615-1.563c1.616-.845 1.527-2.006.051-2.55Z" fill="#2D3945"/></svg>