<svg width="72" height="72" viewBox="0 0 72 72" fill="none" xmlns="http://www.w3.org/2000/svg">
<circle cx="36" cy="36" r="36" fill="#005CB9"/>
<path d="M28.9406 27.3524C28.9406 26.0523 28.9406 24.879 28.9406 23.7057C28.9716 21.8981 29.2195 20.0906 29.9943 18.4416C31.3888 15.4925 33.8061 13.9704 36.9052 13.7167C39.5085 13.5264 42.1427 13.6216 44.746 13.5898C45.2418 13.5898 45.4588 13.7484 45.4588 14.2875C45.4278 16.5073 45.4278 18.727 45.4588 20.9468C45.4588 21.4542 45.3038 21.6127 44.808 21.6127C43.4443 21.581 42.0807 21.6127 40.6862 21.6127C39.1056 21.6127 38.4238 22.3104 38.4238 23.9594C38.4238 25.0375 38.4238 26.1474 38.4238 27.3207C40.8101 27.3207 43.1035 27.3207 45.5517 27.3207C45.2728 30.4601 44.9939 33.5044 44.746 36.6121C42.5146 36.6121 40.3762 36.6121 38.1449 36.6121C38.1449 36.9926 38.1449 37.3414 38.1449 37.6585C38.1449 44.6033 38.1449 51.5797 38.1449 58.5244C38.1449 59.5392 38.1449 59.5392 37.1532 59.5392C34.9218 59.5392 32.7215 59.5392 30.4901 59.5392C28.9096 59.5392 29.0025 59.8563 29.0025 58.0488C29.0025 51.2943 29.0025 44.5399 29.0025 37.7854C29.0025 36.6121 29.0025 36.6121 27.8869 36.6121C26.8332 36.6121 25.7485 36.6121 24.6328 36.6121C24.6328 33.5044 24.6328 30.4601 24.6328 27.3524C26.0584 27.3524 27.422 27.3524 28.9406 27.3524Z" fill="white"/>
</svg>
