<svg width="72" height="72" viewBox="0 0 72 72" fill="none" xmlns="http://www.w3.org/2000/svg">
<circle cx="36" cy="36" r="36" fill="url(#paint0_linear_0_180)"/>
<path d="M53.5489 28.1486C53.5489 34.0152 53.5489 39.85 53.5489 45.7166C53.5179 45.8434 53.4869 45.9703 53.4869 46.0971C53.3939 47.0484 53.177 47.9998 52.7741 48.856C51.0386 52.5979 48.1564 54.5957 44.0966 54.6274C38.8592 54.6908 33.6217 54.6591 28.3842 54.6274C26.7417 54.6274 25.1922 54.2786 23.7666 53.4224C20.6055 51.5197 18.963 48.634 18.963 44.8921C18.932 39.5963 18.963 34.3006 18.963 29.0365C18.963 28.3706 18.994 27.7047 19.1489 27.0387C19.9857 23.1383 22.341 20.6331 26.0909 19.5549C26.6178 19.3964 27.1446 19.3647 27.6714 19.2695C33.4048 19.2695 39.1071 19.2695 44.8404 19.2695C45.2123 19.333 45.5842 19.3647 45.9251 19.4598C49.737 20.3477 52.2162 22.726 53.2699 26.5948C53.4249 27.0705 53.4559 27.6095 53.5489 28.1486ZM36.2249 46.6045C41.4004 46.6362 45.6772 42.2601 45.7082 36.9326C45.7391 31.6369 41.4624 27.2607 36.2559 27.229C31.0804 27.1973 26.8037 31.5734 26.7727 36.9009C26.7727 42.2284 31.0185 46.6045 36.2249 46.6045ZM45.9561 29.5439C47.4746 29.5439 48.7453 28.2438 48.7453 26.6899C48.7453 25.1361 47.4746 23.8359 45.9561 23.8359C44.4375 23.8359 43.1669 25.1361 43.1669 26.6899C43.1359 28.2438 44.4065 29.5439 45.9561 29.5439Z" fill="white"/>
<path d="M36.2544 29.3206C40.3452 29.3206 43.6922 32.7771 43.6612 36.9629C43.6302 41.1488 40.2832 44.5736 36.1924 44.5419C32.1016 44.5102 28.7855 41.0854 28.7855 36.9312C28.8165 32.7454 32.1945 29.3206 36.2544 29.3206Z" fill="white"/>
<path d="M46.698 26.6951C46.698 27.1074 46.3261 27.4562 45.9232 27.4562C45.5203 27.4562 45.1484 27.0757 45.1484 26.6634C45.1794 26.2512 45.5203 25.9023 45.9232 25.9023C46.3571 25.9023 46.698 26.2829 46.698 26.6951Z" fill="white"/>
<defs>
<linearGradient id="paint0_linear_0_180" x1="-5.72182" y1="0.858851" x2="56.015" y2="68.5021" gradientUnits="userSpaceOnUse">
<stop offset="0.1904" stop-color="#FBD822"/>
<stop offset="0.5324" stop-color="#F53288"/>
<stop offset="1" stop-color="#6E1CCF"/>
</linearGradient>
</defs>
</svg>
