<svg width="280" height="65" viewBox="0 0 280 65" fill="none" xmlns="http://www.w3.org/2000/svg">
<path d="M254.688 53.3468L29.8642 62.1171C15.87 62.663 4.34061 52.3583 4.07882 39.0707C3.81703 25.7831 14.923 14.5954 28.9171 14.0495L253.741 5.27908C267.735 4.73317 279.265 15.0379 279.526 28.3255C279.787 41.5405 268.682 52.8009 254.688 53.3468Z" fill="white"/>
<path d="M80.1839 29.2201C79.9586 29.5352 79.7333 29.8504 79.5033 29.9358C79.275 30.0977 78.9679 30.1861 78.5821 30.2008C78.1963 30.2154 77.8089 30.1535 77.4201 30.0151C77.0312 29.8766 76.5636 29.6645 76.0976 29.5289C75.63 29.3168 75.0868 29.1842 74.5436 29.0516C73.9233 28.9219 73.3044 28.8688 72.5329 28.8982C71.4526 28.9393 70.6857 29.1984 70.0761 29.6048C69.5437 30.0083 69.2474 30.6327 69.2613 31.322C69.2721 31.8581 69.4341 32.2351 69.8276 32.6033C70.2196 32.895 70.6887 33.1837 71.3121 33.4665C71.934 33.6728 72.6346 33.9527 73.4108 34.1531C74.187 34.3535 74.9632 34.5538 75.8181 34.8279C76.6731 35.1019 77.4508 35.3788 78.2301 35.7324C79.0094 36.0859 79.7131 36.519 80.3427 37.1082C80.9707 37.6208 81.4476 38.2924 81.8503 39.1201C82.2515 39.8713 82.4259 40.861 82.449 42.0097C82.4767 43.3882 82.2699 44.6224 81.7545 45.8683C81.2375 47.0376 80.5631 48.0596 79.577 48.9402C78.5909 49.8208 77.3687 50.4805 75.9135 51.0724C74.4567 51.5877 72.7638 51.882 70.8349 51.9555C69.909 51.9907 68.9044 51.9523 67.9754 51.8344C67.0464 51.7165 66.1159 51.522 65.1838 51.2509C64.2517 50.9798 63.4724 50.6262 62.6931 50.2727C61.9138 49.9192 61.2873 49.4831 60.7364 48.9676L62.6037 45.8309C62.8275 45.4391 63.0544 45.2006 63.4355 44.9561C63.7395 44.7146 64.2009 44.6204 64.7411 44.5999C65.204 44.5822 65.6685 44.6412 66.0589 44.8563C66.4493 45.0713 66.8397 45.2864 67.3073 45.4985C67.7749 45.7107 68.3196 45.9198 68.9415 46.1261C69.5634 46.3324 70.3366 46.3796 71.1853 46.3473C71.8026 46.3238 72.3411 46.2266 72.801 46.0558C73.2609 45.885 73.5664 45.7201 73.8704 45.4786C74.1744 45.2371 74.3241 45.0015 74.4723 44.6893C74.6204 44.3771 74.6143 44.0707 74.6081 43.7644C74.5973 43.2283 74.4338 42.7747 74.0403 42.4065C73.6468 42.0382 73.1776 41.7495 72.5557 41.5433C71.9338 41.337 71.2333 41.0571 70.4586 40.9333C69.6824 40.7329 68.9062 40.5326 68.0513 40.2585C67.2735 39.9816 66.4186 39.7076 65.6393 39.354C64.86 39.0005 64.1548 38.4908 63.5252 37.9016C62.8956 37.3125 62.4172 36.5643 62.0129 35.6599C61.6086 34.7556 61.4327 33.6893 61.4081 32.464C61.3849 31.3152 61.5933 30.1577 62.0347 29.0679C62.476 27.9781 63.152 27.0327 64.0609 26.155C64.9699 25.2773 66.1149 24.6206 67.4945 24.1082C68.8741 23.5959 70.4898 23.3044 72.3416 23.2339C73.3447 23.1958 74.3493 23.2342 75.2798 23.4287C76.2088 23.5466 77.1409 23.8177 77.9186 24.0946C78.7735 24.3687 79.4757 24.7251 80.1794 25.1582C80.883 25.5913 81.5095 26.0273 81.9833 26.5457L80.1839 29.2201Z" fill="#D8271C"/>
<path d="M81.6946 23.9214L88.3712 23.6679C88.9851 23.6446 89.4486 23.7791 89.8369 23.9925C90.2268 24.2818 90.5398 24.5741 90.701 24.9482L93.7135 37.2284C93.9621 38.1314 94.2107 39.0345 94.3826 39.9405C94.5545 40.8464 94.7248 41.6764 94.8967 42.5823C95.1101 41.7378 95.3986 40.8144 95.6105 39.8938C95.8223 38.9733 96.1109 38.0499 96.3995 37.1264L99.6031 24.6102C99.7489 24.2245 99.9714 23.8358 100.351 23.5933C100.728 23.2748 101.187 23.1814 101.724 23.161L105.408 23.0211C106.022 22.9978 106.485 23.1323 106.874 23.3457C107.263 23.635 107.577 23.9273 107.738 24.3014L111.287 36.5612C111.536 37.4643 111.861 38.3644 112.11 39.2674C112.359 40.1705 112.606 40.9976 112.854 41.9006C112.989 40.983 113.126 40.1414 113.338 39.2208C113.55 38.3003 113.762 37.3798 113.973 36.4592L116.64 23.9634C116.786 23.5777 117.008 23.1891 117.387 22.9465C117.765 22.628 118.224 22.5346 118.761 22.5142L125.131 22.2724L117.015 50.1831L110.262 50.4395C109.878 50.4541 109.569 50.3897 109.335 50.1705C109.1 49.9513 108.863 49.6561 108.699 49.1301L104.431 35.5288C104.189 34.9297 104.023 34.3277 103.857 33.7256C103.692 33.1236 103.526 32.5216 103.437 31.9166C103.296 32.5303 103.231 33.1411 103.09 33.7548C102.949 34.3685 102.807 34.9821 102.59 35.5987L98.8748 49.427C98.5862 50.3505 98.0582 50.8268 97.1373 50.8617L90.9212 51.0977L81.6946 23.9214Z" fill="#D8271C"/>
<path d="M137.744 21.1897C139.592 21.1193 141.293 21.3606 142.844 21.8372C144.395 22.3138 145.722 23.105 146.822 24.1344C147.921 25.1638 148.873 26.5049 149.52 28.0107C150.169 29.5929 150.512 31.3398 150.552 33.3278C150.565 33.9395 150.575 34.4747 150.506 34.86C150.437 35.2452 150.366 35.554 150.217 35.7892C150.067 36.0245 149.916 36.1833 149.61 36.2714C149.38 36.3567 149.073 36.4449 148.688 36.4596L132.668 37.0695C132.945 39.3546 133.749 41.0074 134.926 42.0339C136.103 43.0603 137.575 43.4634 139.424 43.393C140.425 43.3549 141.194 43.2491 141.958 42.9139C142.647 42.6581 143.258 42.4053 143.791 42.0789C144.324 41.7525 144.859 41.5026 145.316 41.2557C145.774 41.0087 146.233 40.8382 146.772 40.8176C147.465 40.7912 147.932 41.003 148.326 41.4471L150.851 44.3353C150.024 45.3615 149.115 46.1613 148.126 46.8112C147.137 47.461 146.145 47.9579 145.074 48.3812C144.004 48.8046 143.007 49.0721 141.93 49.1896C140.855 49.3836 139.855 49.4982 138.931 49.5333C137.005 49.6067 135.151 49.3712 133.444 48.824C131.737 48.2768 130.177 47.3415 128.92 46.165C127.586 44.9915 126.552 43.424 125.745 41.6182C124.938 39.8125 124.587 37.6833 124.536 35.1601C124.499 33.325 124.772 31.5546 125.354 29.849C125.936 28.1434 126.831 26.6555 128.039 25.3852C129.17 24.1178 130.613 23.0681 132.292 22.239C133.746 21.7245 135.664 21.2689 137.744 21.1897ZM138.013 26.9184C136.396 26.98 135.173 27.4857 134.267 28.4384C133.361 29.3911 132.848 30.7115 132.574 32.4054L142.972 32.0095C142.958 31.3213 142.869 30.7126 142.702 30.1068C142.536 29.5009 142.217 28.9774 141.821 28.4569C141.427 28.0128 140.879 27.5745 140.256 27.2921C139.711 27.0068 138.938 26.8832 138.013 26.9184Z" fill="#D8271C"/>
<path d="M166.831 20.3772C168.679 20.3068 170.38 20.5482 171.931 21.0247C173.482 21.5012 174.808 22.2924 175.908 23.3217C177.008 24.351 177.883 25.695 178.607 27.1977C179.255 28.7798 179.599 30.5265 179.639 32.5144C179.651 33.126 179.662 33.6612 179.592 34.0464C179.523 34.4316 179.452 34.7403 179.303 34.9756C179.153 35.2108 179.002 35.3696 178.696 35.4578C178.466 35.543 178.16 35.6312 177.775 35.6459L161.678 36.2587C161.956 38.5436 162.76 40.1962 163.936 41.2226C165.113 42.249 166.586 42.652 168.434 42.5817C169.435 42.5435 170.204 42.4378 170.968 42.1026C171.656 41.8469 172.268 41.594 172.801 41.2677C173.334 40.9414 173.868 40.6915 174.326 40.4445C174.783 40.1975 175.242 40.027 175.781 40.0065C176.475 39.9801 176.941 40.1919 177.336 40.636L179.783 43.5268C178.956 44.553 178.047 45.3527 177.058 46.0025C176.069 46.6522 175.077 47.1491 174.007 47.5724C172.936 47.9957 171.94 48.2632 170.863 48.3807C169.788 48.5747 168.788 48.6893 167.864 48.7245C165.939 48.7978 164.084 48.5623 162.3 48.0181C160.594 47.471 159.033 46.5357 157.776 45.3594C156.443 44.1859 155.409 42.6185 154.602 40.8129C153.795 39.0073 153.367 36.8812 153.316 34.3582C153.279 32.5233 153.552 30.7531 154.134 29.0476C154.716 27.3421 155.611 25.8543 156.819 24.5841C158.026 23.3139 159.393 22.2672 161.072 21.4381C162.834 20.912 164.675 20.4593 166.831 20.3772ZM167.101 26.1055C165.483 26.1671 164.26 26.6727 163.354 27.6254C162.449 28.578 161.936 29.8983 161.661 31.592L172.059 31.1962C172.045 30.5081 171.956 29.8994 171.789 29.2936C171.623 28.6878 171.304 28.1643 170.908 27.6438C170.514 27.1997 169.966 26.7615 169.343 26.4792C168.798 26.1939 168.025 26.0703 167.101 26.1055Z" fill="#D8271C"/>
<path d="M208.675 41.3701C208.433 40.8441 208.038 40.3241 207.645 39.9568C207.176 39.5924 206.707 39.228 206.087 39.0223C204.923 38.6079 203.462 38.6636 202.317 39.1658C201.706 39.4184 201.252 39.8179 200.798 40.2174C200.344 40.6169 200.047 41.1633 199.827 41.7068C199.607 42.2503 199.466 42.8673 199.479 43.5548C199.493 44.2423 199.659 44.8475 199.901 45.3734C200.144 45.9757 200.538 46.4194 200.93 46.7867C201.401 47.2275 201.869 47.5154 202.489 47.7212C203.109 47.9269 203.728 48.0563 204.42 48.0299C205.112 48.0035 205.725 47.8273 206.259 47.5777C206.793 47.328 207.325 47.002 207.778 46.5261C208.231 46.1266 208.528 45.5801 208.747 44.9602C208.965 44.3404 209.107 43.7234 209.095 43.1123C209.082 42.5012 208.916 41.896 208.675 41.3701Z" fill="#D8271C"/>
<path d="M248.578 46.6463L240.962 46.9362L229.556 19.6287L236.48 19.3651C237.096 19.3417 237.56 19.4768 237.949 19.6913C238.34 19.9821 238.654 20.2758 238.816 20.6518L242.913 32.9529C243.241 33.9339 243.569 34.9149 243.896 35.8959C244.147 36.8799 244.396 37.7875 244.647 38.7715C244.858 37.7699 245.07 36.8448 245.281 35.8432C245.492 34.8417 245.857 33.8343 246.144 32.8299L249.895 20.2301C250.041 19.8424 250.264 19.4518 250.721 19.2051C251.099 18.885 251.56 18.7911 252.098 18.7706L258.715 18.5187L248.578 46.6463Z" fill="#D8271C"/>
<path d="M195.655 41.5714C195.494 41.27 195.257 41.1253 195.099 40.9775C194.863 40.8328 194.551 40.7677 194.24 40.7795C194.007 40.7884 193.776 40.874 193.622 40.9567C193.469 41.0394 193.315 41.1221 193.161 41.2048C193.085 41.2845 192.93 41.2904 192.776 41.3731C192.622 41.4558 192.467 41.4617 192.234 41.4706C191.846 41.4853 191.611 41.4173 191.45 41.116C191.211 40.8176 191.127 40.5133 191.116 39.9757L190.874 27.9938L197.163 27.7552L197.038 21.5339L190.748 21.7725L190.607 14.7831L183.775 15.0423L183.776 15.1191C182.694 15.3908 181.938 16.4187 181.959 17.494L182.429 40.7664C182.452 41.9185 182.629 42.9879 183.038 43.9717C183.446 44.9554 183.929 45.7826 184.642 46.4474C185.355 47.1121 186.22 47.6174 187.237 47.9631C188.254 48.3088 189.344 48.4212 190.664 48.3711C191.984 48.3211 193.378 48.1144 194.613 47.6833C195.925 47.2492 197.077 46.5905 198.073 45.861L198.455 45.539L195.655 41.5714Z" fill="#D8271C"/>
<path d="M227.565 40.6886C227.404 40.3872 227.168 40.2425 227.009 40.0947C226.773 39.95 226.461 39.8849 226.15 39.8967C225.918 39.9056 225.686 39.9912 225.532 40.0739C225.379 40.1566 225.225 40.2393 225.071 40.322C224.995 40.4017 224.84 40.4076 224.686 40.4903C224.532 40.573 224.377 40.5789 224.144 40.5878C223.756 40.6025 223.521 40.5345 223.36 40.2332C223.121 39.9348 223.037 39.6305 223.026 39.0929L222.784 27.111L229.073 26.8724L228.948 20.6511L222.659 20.8897L222.517 13.9003L215.685 14.1595L215.686 14.2363C214.604 14.508 213.848 15.5359 213.869 16.6112L214.339 39.8836C214.363 41.0357 214.54 42.1051 214.948 43.0889C215.356 44.0726 215.839 44.8998 216.552 45.5646C217.265 46.2293 218.13 46.7346 219.147 47.0803C220.164 47.4261 221.254 47.5384 222.574 47.4884C223.894 47.4383 225.288 47.2316 226.523 46.8005C227.835 46.3664 228.987 45.7077 229.983 44.9782L230.365 44.6562L227.565 40.6886Z" fill="#D8271C"/>
<path d="M26.5491 12.7926C12.3515 13.7566 0.925493 25.4236 1.09105 38.8967C1.25661 52.3698 12.9501 62.467 27.1477 61.503C41.3452 60.539 52.7713 48.872 52.6057 35.3989C52.5177 21.9205 40.8243 11.8233 26.5491 12.7926ZM36.0698 35.6326L22.2717 43.8303C21.1152 44.5015 20.176 43.8985 20.1588 42.4919L19.8399 29.1774C19.8226 27.7709 20.7445 26.9674 21.9155 27.4806L35.9658 33.491C37.1368 34.0042 37.2262 34.9613 36.0698 35.6326Z" fill="#2D3945"/>
<path opacity="0.5" d="M28.8396 12.2202C14.4819 13.1955 2.97613 25.0257 3.14263 38.5842C3.30913 52.1426 15.086 62.3912 29.4437 61.4159C43.8014 60.4406 54.2206 48.6842 54.0541 35.1257C53.9652 21.562 43.1972 11.2449 28.8396 12.2202ZM38.4438 35.2963L24.5633 43.5061C23.4065 44.1779 22.467 43.5744 22.3721 42.1719L22.0522 28.7722C22.0349 27.3645 22.9571 26.5603 24.1285 27.074L38.3398 33.153C39.5112 33.6666 39.6006 34.6245 38.4438 35.2963Z" fill="#2D3945"/>
<path d="M52.1519 29.3929C51.1714 25.3262 46.1915 17.6186 43.0771 16.5749C40.1186 15.5945 38.5446 13.7083 37.3797 13.5658C36.2924 13.4181 31.1537 11.6996 29.3764 12.1891C27.599 12.6785 25.0351 12.2617 23.5649 12.509C22.0957 12.8299 14.2909 14.9824 9.92216 19.1163C5.78313 23.0132 4.5681 25.0883 4.5681 25.0883C4.5681 25.0883 -3.07494 40.3673 2.83484 41.7383C4.38976 42.0758 4.16825 42.9765 4.26481 44.5199C4.29298 46.806 3.59936 47.1482 5.3976 48.3549C7.19585 49.5616 9.02431 46.9283 10.5919 48.2982C12.0821 49.6734 9.17812 53.1176 13.3889 55.0465C17.5989 56.9017 16.91 51.3391 19.8658 52.0983C22.8991 52.8523 20.3141 57.013 23.7256 57.0033C27.1381 57.0673 25.8449 52.8003 27.8628 52.9589C29.8808 53.1174 28.7568 56.2934 32.9313 55.2725C37.1058 54.2516 34.2749 51.0483 36.5135 50.2324C38.8295 49.4113 39.6569 53.636 44.0995 49.2019C48.5421 44.7677 44.2819 45.1301 45.2691 43.4395C46.1788 41.7542 47.2205 44.4882 48.4912 40.638C49.8393 36.7826 48.617 38.2677 48.4403 36.5083C48.2644 34.8227 53.1325 33.4596 52.1519 29.3929Z" fill="white"/>
<path d="M44.1295 43.1728L40.9722 43.555C40.6642 43.5923 40.4312 43.436 40.4285 43.1903L40.4212 42.5147C40.4186 42.269 40.6476 42.0567 40.9556 42.0195L44.1129 41.6372C44.4209 41.5999 44.6539 41.7562 44.6566 42.0019L44.6639 42.6776C44.5889 42.8712 44.3605 43.1448 44.1295 43.1728Z" fill="#D8271C"/>
<path d="M44.5818 33.9515C44.5034 33.9628 44.4251 33.9741 44.2678 33.9265L43.5591 33.6071C43.4018 33.5595 43.3222 33.4305 43.3216 33.3603C43.3205 33.22 43.3193 33.0797 43.3971 32.9982L45.0215 30.2355C45.1764 30.0024 45.4887 29.817 45.7249 29.9234L46.4336 30.2428C46.5909 30.2904 46.6705 30.4195 46.671 30.4896C46.6722 30.6299 46.6734 30.7703 46.5956 30.8517L44.9712 33.6144C44.973 33.8249 44.7385 33.9289 44.5818 33.9515Z" fill="#D8271C"/>
<path d="M39.9816 28.289C39.9032 28.3003 39.8248 28.3116 39.7459 28.2527L39.0368 27.9328C38.8005 27.8262 38.7197 27.5565 38.8742 27.2528L40.4995 24.486C40.6545 24.2526 40.9669 24.0669 41.2033 24.1735L41.9123 24.4933C42.0697 24.541 42.1492 24.6702 42.1498 24.7404C42.151 24.881 42.1521 25.0215 42.0743 25.1031L40.4497 27.9402C40.294 28.1033 40.1384 28.2664 39.9816 28.289Z" fill="#F6BF48"/>
<path d="M35.6212 21.7127C35.5425 21.7241 35.4637 21.7356 35.3844 21.6759C35.2263 21.6277 35.147 21.568 35.0671 21.4372L33.9418 18.7529C33.8619 18.6221 33.8608 18.4799 33.939 18.3973C34.0166 18.2436 34.0948 18.161 34.2517 18.067L35.0371 17.668C35.3515 17.5511 35.6671 17.5764 35.7482 17.8494L36.8734 20.5338C36.9545 20.8068 36.878 21.1027 36.5635 21.2196L35.7782 21.6186C35.7787 21.6897 35.7 21.7012 35.6212 21.7127Z" fill="#D8271C"/>
<path d="M31.3476 22.8103C31.271 22.8844 31.271 22.8844 31.1944 22.9586C31.0405 23.0427 30.9633 23.0527 30.8088 23.0726L27.6345 22.7768C27.48 22.7967 27.4015 22.6785 27.3236 22.6243C27.245 22.5061 27.2437 22.3778 27.2431 22.3137L27.4683 21.6425C27.543 21.376 27.8506 21.2078 28.083 21.2419L31.2573 21.5378C31.4118 21.5178 31.4904 21.6361 31.5683 21.6902C31.6468 21.8085 31.6481 21.9367 31.6487 22.0009L31.4235 22.6721C31.4242 22.7362 31.4248 22.8003 31.3476 22.8103Z" fill="#20BEC6"/>
<path d="M23.5025 17.7865C23.2707 17.8166 23.0377 17.718 22.9578 17.4705L22.7962 16.7823C22.7949 16.6535 22.7936 16.5248 22.8702 16.4503C22.9462 16.3115 23.1 16.227 23.1773 16.217L26.2616 15.2359C26.4161 15.2158 26.5706 15.1957 26.6486 15.25C26.8037 15.2943 26.8823 15.4131 26.8829 15.4775L27.0445 16.1656C27.1244 16.4131 26.8952 16.7008 26.6641 16.7953L23.5798 17.7764L23.5025 17.7865Z" fill="#F6BF48"/>
<path d="M33.4577 48.7187C33.3793 48.73 33.301 48.7413 33.222 48.6824L32.5129 48.3625C32.2766 48.2559 32.1959 47.9862 32.3503 47.6825L33.9756 44.9157C34.1306 44.6823 34.443 44.4965 34.6794 44.6032L35.3884 44.923C35.5458 44.9706 35.6254 45.0999 35.6259 45.1701C35.6271 45.3107 35.6283 45.4512 35.5505 45.5328L33.9252 48.2996C33.7707 48.6032 33.6145 48.6961 33.4577 48.7187Z" fill="#20BEC6"/>
<path d="M10.185 29.1675L7.38376 28.3516C7.15 28.2505 6.99248 28.0063 7.14557 27.7864L7.52672 27.071C7.67918 26.7848 7.98853 26.6766 8.22228 26.7777L11.0235 27.5936C11.2573 27.6947 11.4148 27.9389 11.2617 28.1588L10.8806 28.8742C10.7275 29.0941 10.4188 29.2686 10.185 29.1675Z" fill="#F6BF48"/>
<path d="M10.8405 43.1748C10.7623 43.1188 10.6842 43.0628 10.6835 42.9962L10.2895 42.3831C10.1326 42.2045 10.2845 41.8505 10.5158 41.6857L13.3722 39.9637C13.5266 39.876 13.6817 39.8549 13.7592 39.8444C13.9149 39.8899 13.9931 39.9459 14.0713 40.0019L14.4653 40.615C14.5441 40.7376 14.5453 40.8707 14.4684 40.9479C14.3921 41.0916 14.3152 41.1687 14.2383 41.2458L11.382 42.9678C11.2276 43.0555 11.0725 43.0766 10.9949 43.0872C10.918 43.1643 10.8405 43.1748 10.8405 43.1748Z" fill="#20BEC6"/>
<path d="M13.8914 23.934C13.813 23.9453 13.7346 23.9566 13.5773 23.9089L12.8682 23.5891C12.6319 23.4825 12.5512 23.2127 12.7056 22.9091L14.3309 20.1422C14.4859 19.9088 14.7983 19.7231 15.0346 19.8297L15.7437 20.1496C15.901 20.1972 15.9806 20.3264 15.9812 20.3967C15.9824 20.5372 15.9835 20.6778 15.9057 20.7593L14.2805 23.5262C14.2032 23.678 14.1254 23.7596 13.9686 23.7822C13.9698 23.9227 13.8914 23.934 13.8914 23.934Z" fill="#D8271C"/>
<path d="M12.308 36.4294C12.1538 36.5867 11.8428 36.6299 11.6854 36.4481L9.18056 34.9634C8.94544 34.7924 8.94297 34.5212 9.09662 34.2961L9.63596 33.6779C9.7131 33.5992 9.86799 33.5098 10.0235 33.4881C10.179 33.4665 10.3345 33.4448 10.4135 33.5697L12.9183 35.0544C12.9967 35.1114 13.0757 35.2362 13.1547 35.361C13.1559 35.4966 13.1572 35.6322 13.08 35.7109L12.5407 36.3291C12.3858 36.4186 12.3858 36.4186 12.308 36.4294Z" fill="#D8271C"/>
<path d="M15.5715 50.4902C15.3345 50.5248 15.0964 50.4161 15.0158 50.2127L14.1241 47.4018C14.0429 47.1267 14.1986 46.8171 14.5141 46.6993L15.3024 46.3691C15.4604 46.346 15.6184 46.3229 15.698 46.3831C15.8565 46.4317 15.9361 46.4918 15.9372 46.6351L16.8289 49.446C16.83 49.5893 16.8311 49.7326 16.7526 49.8157C16.6747 49.9706 16.5963 50.0538 16.4383 50.0768L15.65 50.407C15.7295 50.4672 15.6505 50.4787 15.5715 50.4902Z" fill="#D8271C"/>
<path d="M25.9163 51.8375C25.6793 51.872 25.4412 51.7633 25.3606 51.5599L24.5479 48.7375C24.4667 48.4624 24.6225 48.1528 24.9379 48.035L25.7262 47.7048C25.8842 47.6817 26.0422 47.6586 26.1217 47.7188C26.2803 47.7674 26.3604 47.8991 26.3609 47.9708L27.2526 50.7817C27.2537 50.925 27.2548 51.0683 27.1764 51.1515C27.0985 51.3063 27.0201 51.3895 26.8621 51.4125L26.0738 51.7428C25.9953 51.8259 25.9953 51.8259 25.9163 51.8375Z" fill="#F6BF48"/>
<path d="M38.6486 32.5821L20.5793 25.7932C19.0929 25.2255 17.8554 26.211 17.8726 28.0028L18.1869 44.4712C18.2041 46.263 19.4575 46.9259 20.9301 46.0602L38.6748 35.3056C40.2245 34.3604 40.135 33.1498 38.6486 32.5821Z" fill="#20BEC6"/>
<path d="M38.4934 32.2166L20.5587 25.7112C19.0834 25.1672 17.8552 26.1128 17.8724 27.8313L17.8938 29.9621L35.8272 36.33L38.4417 34.7674C40.0577 33.9216 39.9687 32.7606 38.4934 32.2166Z" fill="#2D3945"/>
</svg>
