<svg width="72" height="72" fill="none" xmlns="http://www.w3.org/2000/svg"><circle cx="36" cy="36" r="36" fill="#005CB9"/><path d="M28.94 27.352v-3.646c.032-1.808.28-3.615 1.054-5.264 1.395-2.95 3.812-4.472 6.911-4.725 2.603-.19 5.238-.095 7.841-.127.496 0 .713.158.713.697-.031 2.22-.031 4.44 0 6.66 0 .507-.155.666-.651.666-1.364-.032-2.727 0-4.122 0-1.58 0-2.262.697-2.262 2.346v3.362h7.128c-.28 3.14-.558 6.183-.806 9.291h-6.601v21.912c0 1.015 0 1.015-.992 1.015H30.49c-1.58 0-1.487.317-1.487-1.49V37.785c0-1.173 0-1.173-1.116-1.173h-3.254v-9.26h4.308Z" fill="#fff"/></svg>