<svg width="72" height="72" fill="none" xmlns="http://www.w3.org/2000/svg"><circle cx="36" cy="36" r="36" fill="url(#a)"/><path d="M53.549 28.149v17.568a1.625 1.625 0 0 0-.062.38c-.093.951-.31 1.903-.713 2.759-1.735 3.742-4.618 5.74-8.677 5.771-5.238.064-10.475.032-15.713 0-1.642 0-3.192-.348-4.617-1.205-3.162-1.902-4.804-4.788-4.804-8.53-.031-5.296 0-10.591 0-15.856 0-.665.031-1.331.186-1.997.837-3.9 3.192-6.406 6.942-7.484.527-.159 1.054-.19 1.58-.285h17.17c.371.063.743.095 1.084.19 3.812.888 6.291 3.266 7.345 7.135.155.476.186 1.015.279 1.554ZM36.225 46.605c5.175.031 9.452-4.345 9.483-9.672.031-5.296-4.246-9.672-9.452-9.704-5.176-.032-9.452 4.344-9.483 9.672 0 5.327 4.245 9.703 9.452 9.703Zm9.731-17.061c1.519 0 2.79-1.3 2.79-2.854s-1.271-2.854-2.79-2.854c-1.519 0-2.79 1.3-2.79 2.854-.03 1.554 1.24 2.854 2.79 2.854Z" fill="#fff"/><path d="M36.254 29.32c4.091 0 7.438 3.457 7.407 7.643-.03 4.186-3.378 7.61-7.469 7.579-4.09-.032-7.407-3.457-7.407-7.61.032-4.187 3.41-7.611 7.47-7.611Zm10.444-2.625c0 .412-.372.761-.775.761s-.775-.38-.775-.793c.031-.412.372-.76.775-.76.434 0 .775.38.775.792Z" fill="#fff"/><defs><linearGradient id="a" x1="-5.722" y1=".859" x2="56.015" y2="68.502" gradientUnits="userSpaceOnUse"><stop offset=".19" stop-color="#FBD822"/><stop offset=".532" stop-color="#F53288"/><stop offset="1" stop-color="#6E1CCF"/></linearGradient></defs></svg>