<svg width="40" height="40" viewBox="0 0 40 40" fill="none" xmlns="http://www.w3.org/2000/svg">
<g clip-path="url(#clip0_0_226)">
<path d="M37.8882 9.59766L35.3347 35.239H4.66469L2.60742 10.0939L19.9997 19.8316L37.8882 9.59766Z" fill="#F2F2F2"/>
<path d="M37.022 4.76562L19.9997 20.7559L2.97735 4.76562H19.9997H37.022Z" fill="#F2F2F2"/>
<path d="M4.665 12.1466V35.2344H1.88586C0.844688 35.2344 0 34.3898 0 33.3485V8.74609L3.04688 8.82914L4.665 12.1466Z" fill="#F14336"/>
<path d="M40.0009 8.74602V33.3485C40.0009 34.3897 39.1563 35.2344 38.1141 35.2344H35.3359V12.1465L36.8744 8.51172L40.0009 8.74602Z" fill="#D32E2A"/>
<path d="M40 6.65148V8.74875L35.335 12.1492L20 23.3264L4.665 12.1492L0 8.74875V6.65148C0 5.61031 0.844688 4.76562 1.88586 4.76562H2.97766L20 17.1726L37.0223 4.76562H38.1131C39.1553 4.76562 40 5.61023 40 6.65148Z" fill="#F14336"/>
<path d="M4.665 12.1466L0 11.4233V8.74609L4.665 12.1466Z" fill="#D32E2A"/>
</g>
<defs>
<clipPath id="clip0_0_226">
<rect width="40" height="40" fill="white"/>
</clipPath>
</defs>
</svg>
