<svg width="40" height="40" viewBox="0 0 40 40" fill="none" xmlns="http://www.w3.org/2000/svg">
<g clip-path="url(#clip0_0_210)">
<path d="M35 0H5C2.23858 0 0 2.23858 0 5V35C0 37.7614 2.23858 40 5 40H35C37.7614 40 40 37.7614 40 35V5C40 2.23858 37.7614 0 35 0Z" fill="#7D3DAF"/>
<path d="M32.6505 12.8936L32.6426 12.8621C32.0036 10.2789 29.1229 7.50714 26.4775 6.93048L26.4477 6.92434C22.1688 6.10807 17.8303 6.10807 13.5524 6.92434L13.5216 6.93048C10.8771 7.50714 7.99645 10.2789 7.3566 12.8621L7.34958 12.8936C6.55964 16.501 6.55964 20.1593 7.34958 23.7667L7.3566 23.7983C7.96916 26.2712 10.6353 28.9156 13.182 29.6429V32.5264C13.182 33.57 14.4538 34.0826 15.177 33.3295L18.0985 30.2927C18.7321 30.3281 19.3661 30.3479 20 30.3479C22.1539 30.3479 24.3087 30.1443 26.4477 29.7361L26.4775 29.73C29.1229 29.1533 32.0036 26.3815 32.6426 23.7984L32.6505 23.7668C33.4404 20.1593 33.4404 16.501 32.6505 12.8936ZM30.3386 23.2436C29.912 24.9288 27.7248 27.0239 25.9869 27.411C23.7118 27.8436 21.4187 28.0285 19.1278 27.9651C19.0823 27.9639 19.0385 27.9815 19.0067 28.0141C18.6816 28.3479 16.8736 30.2039 16.8736 30.2039L14.6047 32.5324C14.4388 32.7053 14.1474 32.5877 14.1474 32.349V27.5723C14.1474 27.4934 14.0911 27.4263 14.0136 27.4112C14.0132 27.4111 14.0127 27.411 14.0123 27.4109C12.2744 27.0238 10.088 24.9287 9.66059 23.2435C8.94965 19.9828 8.94965 16.6774 9.66059 13.4167C10.088 11.7315 12.2744 9.63638 14.0123 9.24931C17.9857 8.4936 22.0144 8.4936 25.9869 9.24931C27.7256 9.63638 29.912 11.7315 30.3386 13.4167C31.0503 16.6775 31.0503 19.9829 30.3386 23.2436Z" fill="white"/>
<path d="M23.78 25.4468C23.5128 25.3657 23.2582 25.3112 23.0217 25.2131C20.5715 24.1966 18.3165 22.8851 16.5302 20.8747C15.5145 19.7315 14.7194 18.4408 14.0474 17.0749C13.7287 16.4271 13.4601 15.754 13.1863 15.0853C12.9367 14.4755 13.3044 13.8455 13.6916 13.386C14.0548 12.9548 14.5223 12.6247 15.0286 12.3815C15.4237 12.1917 15.8135 12.3011 16.1021 12.6361C16.726 13.3602 17.299 14.1213 17.7631 14.9607C18.0484 15.4769 17.9701 16.108 17.453 16.4594C17.3273 16.5448 17.2127 16.645 17.0957 16.7415C16.993 16.826 16.8963 16.9114 16.8259 17.0258C16.6973 17.2353 16.6911 17.4822 16.774 17.7099C17.4117 19.4625 18.4867 20.8254 20.2507 21.5594C20.533 21.6768 20.8165 21.8136 21.1416 21.7757C21.6863 21.712 21.8626 21.1146 22.2442 20.8025C22.6173 20.4975 23.0939 20.4935 23.4958 20.7478C23.8977 21.0021 24.2873 21.2752 24.6745 21.5511C25.0547 21.822 25.4331 22.087 25.7838 22.3958C26.1209 22.6927 26.237 23.0822 26.0472 23.4852C25.6996 24.2231 25.1939 24.8371 24.4643 25.229C24.2583 25.3395 24.0123 25.3753 23.78 25.4468C24.0123 25.3753 23.5128 25.3657 23.78 25.4468Z" fill="white"/>
<path d="M20.0067 11.5394C23.2116 11.6291 25.844 13.7561 26.4081 16.9246C26.5042 17.4645 26.5384 18.0165 26.5812 18.5645C26.5992 18.795 26.4686 19.0139 26.2199 19.0169C25.963 19.02 25.8474 18.805 25.8307 18.5746C25.7977 18.1186 25.7748 17.6605 25.712 17.2082C25.3802 14.8208 23.4764 12.8456 21.1 12.4217C20.7425 12.3579 20.3764 12.3411 20.0142 12.3031C19.7852 12.2791 19.4853 12.2652 19.4346 11.9806C19.392 11.7419 19.5934 11.5519 19.8207 11.5397C19.8825 11.5363 19.9446 11.5391 20.0067 11.5394C19.9446 11.5391 23.2116 11.6291 20.0067 11.5394Z" fill="white"/>
<path d="M24.8766 17.852C24.8714 17.892 24.8685 17.9861 24.8451 18.0747C24.7601 18.3965 24.2722 18.4368 24.1599 18.112C24.1266 18.0157 24.1216 17.906 24.1214 17.8023C24.1203 17.1235 23.9728 16.4453 23.6305 15.8547C23.2786 15.2477 22.741 14.7374 22.1104 14.4286C21.7292 14.2419 21.3168 14.1259 20.8989 14.0567C20.7163 14.0265 20.5317 14.0082 20.3482 13.9827C20.1258 13.9518 20.007 13.81 20.0175 13.5909C20.0274 13.3855 20.1775 13.2377 20.4013 13.2504C21.1368 13.2922 21.8472 13.4511 22.5011 13.7974C23.8308 14.5016 24.5904 15.6131 24.8121 17.0973C24.8221 17.1645 24.8383 17.2312 24.8434 17.2987C24.8559 17.4653 24.8638 17.6322 24.8766 17.852C24.8638 17.6322 24.8714 17.892 24.8766 17.852Z" fill="white"/>
<path d="M22.8838 17.7756C22.6157 17.7804 22.4722 17.632 22.4445 17.3862C22.4253 17.2148 22.4101 17.0411 22.3692 16.8743C22.2886 16.5458 22.1141 16.2415 21.8378 16.0402C21.7073 15.9451 21.5595 15.8759 21.4047 15.8312C21.208 15.7744 21.0038 15.7901 20.8075 15.742C20.5944 15.6897 20.4765 15.5172 20.5101 15.3172C20.5405 15.1353 20.7175 14.9933 20.9163 15.0077C22.1589 15.0974 23.047 15.7398 23.1737 17.2026C23.1827 17.3058 23.1932 17.4149 23.1703 17.5136C23.1311 17.6827 23.0059 17.7674 22.8838 17.7756C23.0059 17.7674 22.6157 17.7804 22.8838 17.7756Z" fill="white"/>
</g>
<defs>
<clipPath id="clip0_0_210">
<rect width="40" height="40" fill="white"/>
</clipPath>
</defs>
</svg>
